<svg width="362" height="97" xmlns="http://www.w3.org/2000/svg">
	<style type="text/css">.st0{fill:#e8e8e8;}</style>

	<g>
		<title>background</title>
		<rect fill="none" id="canvas_background" height="99" width="364" y="-1" x="-1"/>
	</g>
	<g>
		<title>Layer 1</title>
		<g id="svg_1">
			<path id="svg_2" d="m332.36665,33.36665l-9.3,0l0.1,-0.4c3.1,-11.4 9.2,-21.1 18,-28.7l-61.8,0l0,5.1l49.6,0l-0.3,0.5c-0.5,0.7 -0.9,1.3 -1.4,2c-1.5,2.1 -3.1,4.3 -4.3,6.7l-0.1,0.2l-0.3,0c-0.1,0 -0.2,0 -0.3,0l-42.9,0l0,5.9c18.8,8.9 31.8,27.2 33.9,47.6l0,16.5l5.3,0l0,-15.8c0,-0.2 0,-0.4 0,-0.6l-0.1,-2l0.7,1.9c1.8,5.1 4.2,10 7.2,14.5c0.4,0.6 0.8,1.2 1.2,1.8l0.2,0.3l6.7,0c-1.4,-1.6 -2.6,-3.3 -3.7,-5c-3.3,-4.9 -5.8,-10.3 -7.5,-16l-0.1,-0.4l9.9,0l0.1,0.2c1.5,4 3.4,7.8 5.7,11.4c2.3,3.5 5.2,6.8 8.4,9.8l8.4,0c-5,-3.5 -9.2,-7.8 -12.5,-12.7c-1.7,-2.6 -3.2,-5.3 -4.4,-8.2l-0.2,-0.4l10.1,0l0.1,0.2c0.6,1.2 1.2,2.2 1.8,3.1c3,4.7 7,8.6 11.6,11.7l0,-6.9c-2.8,-2.3 -5.2,-5 -7.1,-8l-0.3,-0.4l7.4,0l0,-5.3l-45.5,0l0.1,-0.3c-0.5,-1.7 -1,-3.4 -1.5,-4.9c-0.2,-0.5 -0.4,-1 -0.5,-1.5c-0.3,-0.7 -0.5,-1.4 -0.9,-2.2l-0.2,-0.4l48.7,0l0,-5.3l-51.3,0l-0.1,-0.1c-1.6,-2.8 -3.3,-5.5 -5.3,-8.1l-0.4,-0.5l57,0l0,-5.3l-9.5,0l0.2,-0.4c2.1,-4.3 5.1,-6.7 8.6,-9.6l0.6,-0.5l0,-6.6c-7.9,5.2 -12.4,10.3 -15.2,16.9l-0.1,0.2l-9.2,0l0.1,-0.4c3.8,-10.9 11.3,-18.7 24.3,-25.4l0,-3.2l-5.2,0c-12.6,7 -20.9,16.7 -24.7,28.8l0.2,0.2zm-11.9,-9.1c-1,2.7 -2,5.6 -2.8,8.9l-0.1,0.2l-17,0l-0.1,-0.1c-3.2,-3.3 -6.8,-6.3 -10.6,-8.9l-0.8,-0.5l31.4,0l0,0.4z" class="st0"/>
			<path id="svg_3" d="m305.26665,73.46665l0,0c0,-0.3 0,-0.5 0,-0.7c-2.1,-15.8 -11.7,-30.1 -25.8,-38.2l0,6.3c11.3,7.6 18.8,19.5 20.5,32.7l0,0.1l0,0.1c0,0.1 0,0.1 0,0.2l0,14.7l5.3,0l0,-14.7c0,-0.1 0,-0.2 0,-0.3l0,-0.2z" class="st0"/>
			<path id="svg_4" d="m291.46665,73.16665l0,0c0.1,-0.4 0,-0.7 0,-1.1c-2,-8.3 -6,-15 -12,-20l0,7.5c3.2,3.8 5.5,8.3 6.8,13.6l0,0.1l0,0.1c0,0.1 0,0.2 0,0.3l0,15l5.3,0l0,-15c0,-0.1 0,-0.2 0,-0.2l-0.1,-0.3z" class="st0"/>
			<path id="svg_5" d="m257.66665,78.16665l-32.5,-66.9c-0.5,-0.8 -1,-1.6 -1.4,-2.4c-2.4,-4.3 -5.6,-6.5 -9.3,-6.5c-4,0 -7.3,2.3 -9.3,6.4c-0.1,0.1 -0.2,0.3 -0.4,0.6l-0.2,0.3l-35.3,74.3l-3.2,6.8l-1.9,3.7l18.2,0l12.3,-26.7l40.5,0l9.2,21.1l18.6,0.1l-5.3,-10.8zm-29.4,-26.4l-26.9,0l13.1,-29.5l13.8,29.5z" class="st0"/>
			<path id="svg_6" d="m165.16665,65.66665c0,-6.7 -2.4,-12.6 -7,-17.2c-1,-1 -1.9,-1.8 -2.9,-2.5l4.4,-9.2c1.8,-4.5 2.2,-6.4 2.2,-10.8c0,-16.8 -10.4,-25.3 -31.1,-25.3l-45.6,0l0,93.7l45.6,0c14.3,0 33.4,-2.8 34.4,-26.7c0,-0.7 0,-1.3 0,-2m-21.4,-31.5l-0.1,0.2c-0.5,0.9 -1.3,2.2 -2.3,2.6c-2.1,0.9 -5.3,1 -8.6,1c-1.3,0 -2.6,0 -4,0c-1.6,0 -3.2,-0.1 -4.9,-0.1l-22.6,0l0,-22.2l27.9,0c14.6,0 16,5 16.4,11c0.1,2.5 -0.6,5.4 -1.8,7.5m-42.5,18.5l22.1,0c0.5,0 1,0 1.5,0c8.5,0 23.8,1.3 23.8,13.7c0,3.8 0,12.6 -18.8,12.6l-28.6,0l0,-26.3z" class="st0"/>
			<path id="svg_7" d="m72.96665,53.96665c-4.7,-6.7 -12.9,-9.1 -21.2,-10.8l-18,-3.6c-0.3,-0.1 -0.8,-0.2 -1.5,-0.3c-2.2,-0.4 -6.3,-0.9 -9.9,-2.8c-2.6,-1.3 -3.2,-2 -4.2,-4.5c-1.3,-3.2 -0.6,-6.3 1.3,-8.8c2.5,-3.3 7.3,-6 15.7,-5.8c0.7,0 27.3,2 27.3,2l0,-16.6l-2.9,-0.1c-0.2,0 -21.1,-1.3 -22.8,-1.3c-22.9,0 -36.1,10.3 -36.1,28.3c0,14.7 7.7,22.5 23.6,25.3l17.9,3.6c14.3,2.1 17.1,4.9 17.1,11c0,8.7 -9.5,10.6 -17.4,10.6c-1.1,0 -10.2,0 -10.2,0l-7.9,16.2c0,0 10.3,0 12.5,0l2,0c2.7,0 4.9,-0.1 6.8,-0.3c6.1,-0.5 6.2,-0.5 9.9,-1.3c6.3,-1.3 13.4,-5.4 16.6,-9.5c4,-4.9 4.7,-13.3 4.8,-15.8c0.4,-6.6 -0.7,-11.7 -3.4,-15.5" class="st0"/>
		</g>
	</g>
</svg>