<?xml version="1.0" encoding="iso-8859-1"?>
<!-- Generator: Adobe Illustrator 21.0.2, SVG Export Plug-In . SVG Version: 6.00 Build 0)  -->
<svg version="1.1" id="Layer_1" xmlns="http://www.w3.org/2000/svg" xmlns:xlink="http://www.w3.org/1999/xlink" x="0px" y="0px"
	 viewBox="0 0 100.75 100.749" style="enable-background:new 0 0 100.75 100.749;" xml:space="preserve">
<path d="M89.638,31.158H67.835c-0.023-0.001-0.045-0.007-0.068-0.007c-0.829,0-1.5,0.672-1.5,1.5v33.195H32.232
	c-0.829,0-1.5,0.672-1.5,1.5v22.713c0,0.828,0.671,1.5,1.5,1.5h57.406c0.829,0,1.5-0.672,1.5-1.5V32.658
	C91.138,31.83,90.467,31.158,89.638,31.158z M88.138,88.559H33.732V68.846h34.035c0.829,0,1.5-0.672,1.5-1.5V34.158h18.871
	L88.138,88.559L88.138,88.559z"/>
<path d="M65.469,11.44h0.798v1.438c0,0.829,0.671,1.5,1.5,1.5s1.5-0.671,1.5-1.5V9.94c0-0.829-0.671-1.5-1.5-1.5h-2.298
	c-0.829,0-1.5,0.671-1.5,1.5S64.641,11.44,65.469,11.44z"/>
<path d="M13.581,8.44h-3.219c-0.829,0-1.5,0.671-1.5,1.5v2.729c0,0.829,0.671,1.5,1.5,1.5s1.5-0.671,1.5-1.5V11.44h1.719
	c0.829,0,1.5-0.671,1.5-1.5S14.409,8.44,13.581,8.44z"/>
<path d="M10.362,25.838c0.829,0,1.5-0.672,1.5-1.5v-4.851c0-0.829-0.671-1.5-1.5-1.5s-1.5,0.671-1.5,1.5v4.851
	C8.862,25.166,9.533,25.838,10.362,25.838z"/>
<path d="M10.362,36.929c0.829,0,1.5-0.672,1.5-1.5v-4.804c0-0.828-0.671-1.5-1.5-1.5s-1.5,0.672-1.5,1.5v4.804
	C8.862,36.257,9.533,36.929,10.362,36.929z"/>
<path d="M12.771,65.847h-0.909v-1.506c0-0.828-0.671-1.5-1.5-1.5s-1.5,0.672-1.5,1.5v3.006c0,0.828,0.671,1.5,1.5,1.5h2.409
	c0.829,0,1.5-0.672,1.5-1.5S13.599,65.847,12.771,65.847z"/>
<path d="M10.362,48.036c0.829,0,1.5-0.672,1.5-1.5v-4.795c0-0.828-0.671-1.5-1.5-1.5s-1.5,0.672-1.5,1.5v4.795
	C8.862,47.364,9.533,48.036,10.362,48.036z"/>
<path d="M10.362,59.152c0.829,0,1.5-0.672,1.5-1.5v-4.799c0-0.828-0.671-1.5-1.5-1.5s-1.5,0.672-1.5,1.5v4.799
	C8.862,58.48,9.533,59.152,10.362,59.152z"/>
<path d="M53.543,11.44h4.854c0.829,0,1.5-0.671,1.5-1.5s-0.671-1.5-1.5-1.5h-4.854c-0.829,0-1.5,0.671-1.5,1.5
	S52.715,11.44,53.543,11.44z"/>
<path d="M42.457,11.44h4.795c0.829,0,1.5-0.671,1.5-1.5s-0.671-1.5-1.5-1.5h-4.795c-0.829,0-1.5,0.671-1.5,1.5
	S41.628,11.44,42.457,11.44z"/>
<path d="M36.144,11.44c0.829,0,1.5-0.671,1.5-1.5s-0.671-1.5-1.5-1.5h-4.803c-0.829,0-1.5,0.671-1.5,1.5s0.671,1.5,1.5,1.5H36.144z"
	/>
<path d="M25.028,8.44h-4.799c-0.829,0-1.5,0.671-1.5,1.5s0.671,1.5,1.5,1.5h4.799c0.829,0,1.5-0.671,1.5-1.5
	S25.857,8.44,25.028,8.44z"/>
<path d="M25.028,65.847h-4.799c-0.829,0-1.5,0.672-1.5,1.5s0.671,1.5,1.5,1.5h4.799c0.829,0,1.5-0.672,1.5-1.5
	S25.857,65.847,25.028,65.847z"/>
<path d="M67.768,18.001c-0.829,0-1.5,0.671-1.5,1.5v4.795c0,0.828,0.671,1.5,1.5,1.5s1.5-0.672,1.5-1.5v-4.795
	C69.268,18.673,68.596,18.001,67.768,18.001z"/>
</svg>
