<?xml version="1.0" encoding="utf-8"?>
<!-- Generator: Adobe Illustrator 21.0.2, SVG Export Plug-In . SVG Version: 6.00 Build 0)  -->
<svg version="1.1" id="Layer_1" xmlns="http://www.w3.org/2000/svg" xmlns:xlink="http://www.w3.org/1999/xlink" x="0px" y="0px"
	 viewBox="0 0 565 420" style="enable-background:new 0 0 565 420;" xml:space="preserve">
<style type="text/css">
	.st0{fill:#414141;}
</style>
<g>
	<path class="st0" d="M444.6,178.7h-9.3l0.1-0.4c3.1-11.4,9.2-21.1,18-28.7h-61.8v5.1h49.6l-0.3,0.5c-0.5,0.7-0.9,1.3-1.4,2
		c-1.5,2.1-3.1,4.3-4.3,6.7l-0.1,0.2l-0.3,0c-0.1,0-0.2,0-0.3,0h-42.9v5.9c18.8,8.9,31.8,27.2,33.9,47.6l0,16.5h5.3v-15.8
		c0-0.2,0-0.4,0-0.6l-0.1-2l0.7,1.9c1.8,5.1,4.2,10,7.2,14.5c0.4,0.6,0.8,1.2,1.2,1.8l0.2,0.3h6.7c-1.4-1.6-2.6-3.3-3.7-5
		c-3.3-4.9-5.8-10.3-7.5-16l-0.1-0.4h9.9l0.1,0.2c1.5,4,3.4,7.8,5.7,11.4c2.3,3.5,5.2,6.8,8.4,9.8h8.4c-5-3.5-9.2-7.8-12.5-12.7
		c-1.7-2.6-3.2-5.3-4.4-8.2l-0.2-0.4h10.1l0.1,0.2c0.6,1.2,1.2,2.2,1.8,3.1c3,4.7,7,8.6,11.6,11.7V221c-2.8-2.3-5.2-5-7.1-8
		l-0.3-0.4h7.4v-5.3h-45.5L429,207c-0.5-1.7-1-3.4-1.5-4.9c-0.2-0.5-0.4-1-0.5-1.5c-0.3-0.7-0.5-1.4-0.9-2.2l-0.2-0.4h48.7v-5.3
		h-51.3l-0.1-0.1c-1.6-2.8-3.3-5.5-5.3-8.1l-0.4-0.5h57v-5.3h-9.5l0.2-0.4c2.1-4.3,5.1-6.7,8.6-9.6l0.6-0.5v-6.6
		c-7.9,5.2-12.4,10.3-15.2,16.9l-0.1,0.2h-9.2l0.1-0.4c3.8-10.9,11.3-18.7,24.3-25.4v-3.2h-5.2c-12.6,7-20.9,16.7-24.7,28.8
		L444.6,178.7z M432.7,169.6c-1,2.7-2,5.6-2.8,8.9l-0.1,0.2h-17l-0.1-0.1c-3.2-3.3-6.8-6.3-10.6-8.9l-0.8-0.5h31.4L432.7,169.6z"/>
	<path class="st0" d="M417.5,218.8L417.5,218.8c0-0.3,0-0.5,0-0.7c-2.1-15.8-11.7-30.1-25.8-38.2v6.3c11.3,7.6,18.8,19.5,20.5,32.7
		l0,0.1l0,0.1c0,0.1,0,0.1,0,0.2v14.7h5.3v-14.7c0-0.1,0-0.2,0-0.3L417.5,218.8z"/>
	<path class="st0" d="M403.7,218.5L403.7,218.5c0.1-0.4,0-0.7,0-1.1c-2-8.3-6-15-12-20v7.5c3.2,3.8,5.5,8.3,6.8,13.6l0,0.1l0,0.1
		c0,0.1,0,0.2,0,0.3v15h5.3v-15c0-0.1,0-0.2,0-0.2L403.7,218.5z"/>
	<path class="st0" d="M369.9,223.5l-32.5-66.9c-0.5-0.8-1-1.6-1.4-2.4c-2.4-4.3-5.6-6.5-9.3-6.5c-4,0-7.3,2.3-9.3,6.4
		c-0.1,0.1-0.2,0.3-0.4,0.6l-0.2,0.3l-35.3,74.3l-3.2,6.8l-1.9,3.7h18.2l12.3-26.7h40.5l9.2,21.1l18.6,0.1L369.9,223.5z
		 M340.5,197.1h-26.9l13.1-29.5L340.5,197.1z"/>
	<path class="st0" d="M277.4,211c0-6.7-2.4-12.6-7-17.2c-1-1-1.9-1.8-2.9-2.5l4.4-9.2c1.8-4.5,2.2-6.4,2.2-10.8
		c0-16.8-10.4-25.3-31.1-25.3h-45.6v93.7H243c14.3,0,33.4-2.8,34.4-26.7C277.4,212.3,277.4,211.7,277.4,211 M256,179.5l-0.1,0.2
		c-0.5,0.9-1.3,2.2-2.3,2.6c-2.1,0.9-5.3,1-8.6,1c-1.3,0-2.6,0-4,0c-1.6,0-3.2-0.1-4.9-0.1h-22.6V161h27.9c14.6,0,16,5,16.4,11
		C257.9,174.5,257.2,177.4,256,179.5 M213.5,198h22.1c0.5,0,1,0,1.5,0c8.5,0,23.8,1.3,23.8,13.7c0,3.8,0,12.6-18.8,12.6h-28.6V198z"
		/>
	<path class="st0" d="M185.2,199.3c-4.7-6.7-12.9-9.1-21.2-10.8l-18-3.6c-0.3-0.1-0.8-0.2-1.5-0.3c-2.2-0.4-6.3-0.9-9.9-2.8
		c-2.6-1.3-3.2-2-4.2-4.5c-1.3-3.2-0.6-6.3,1.3-8.8c2.5-3.3,7.3-6,15.7-5.8c0.7,0,27.3,2,27.3,2l0-16.6l-2.9-0.1
		c-0.2,0-21.1-1.3-22.8-1.3c-22.9,0-36.1,10.3-36.1,28.3c0,14.7,7.7,22.5,23.6,25.3l17.9,3.6c14.3,2.1,17.1,4.9,17.1,11
		c0,8.7-9.5,10.6-17.4,10.6c-1.1,0-10.2,0-10.2,0l-7.9,16.2c0,0,10.3,0,12.5,0l2,0c2.7,0,4.9-0.1,6.8-0.3c6.1-0.5,6.2-0.5,9.9-1.3
		c6.3-1.3,13.4-5.4,16.6-9.5c4-4.9,4.7-13.3,4.8-15.8C189,208.2,187.9,203.1,185.2,199.3"/>
</g>
</svg>
