<?xml version="1.0" encoding="iso-8859-1"?>
<!-- Generator: Adobe Illustrator 21.0.2, SVG Export Plug-In . SVG Version: 6.00 Build 0)  -->
<svg version="1.1" id="Layer_1" xmlns="http://www.w3.org/2000/svg" xmlns:xlink="http://www.w3.org/1999/xlink" x="0px" y="0px"
	 viewBox="0 0 100.75 100.75" style="enable-background:new 0 0 100.75 100.75;" xml:space="preserve">
<path d="M84.01,16.455h-7.105V9.709c0-0.829-0.671-1.5-1.5-1.5H15.989c-0.829,0-1.5,0.671-1.5,1.5v16.49c0,0.829,0.671,1.5,1.5,1.5
	h59.416c0.829,0,1.5-0.671,1.5-1.5v-6.744h5.605v16.06l-36.141,8.72c-0.673,0.163-1.148,0.765-1.148,1.458v7.493h-3.827
	c-0.829,0-1.5,0.671-1.5,1.5v35.606c0,0.829,0.671,1.5,1.5,1.5h10.654c0.829,0,1.5-0.671,1.5-1.5V54.686c0-0.829-0.671-1.5-1.5-1.5
	h-3.827v-6.312l36.141-8.72c0.673-0.163,1.148-0.765,1.148-1.458V17.955C85.51,17.127,84.839,16.455,84.01,16.455z M73.906,24.699
	H17.49v-13.49h56.416V24.699z M50.549,88.792h-7.654V56.186h7.654V88.792z"/>
</svg>
